<svg width="161" height="15" viewBox="0 0 161 15" fill="none" xmlns="http://www.w3.org/2000/svg">
<path d="M2 7.35758L2.29714 7.71981C5.22308 11.2867 10.7687 11.1084 13.5551 7.43153V7.43153C16.3545 3.73753 21.9632 3.66358 24.7625 7.35758V7.35758C27.5619 11.0516 33.1145 11.0516 35.9138 7.35758V7.35758C38.7132 3.66358 44.2658 3.66358 47.0652 7.35758V7.35758C49.8645 11.0516 55.4171 11.0516 58.2165 7.35758V7.35758C61.0159 3.66358 66.5685 3.66358 69.3678 7.35758V7.35758C72.1672 11.0516 77.7198 11.0516 80.5192 7.35758V7.35758" stroke="#FFC700" stroke-width="4"/>
<path d="M159 7.35726L158.703 6.99503C155.777 3.42818 150.231 3.60642 147.445 7.28332V7.28332C144.646 10.9773 139.037 11.0513 136.237 7.35726V7.35726C133.438 3.66327 127.886 3.66327 125.086 7.35726V7.35726C122.287 11.0513 116.734 11.0513 113.935 7.35726V7.35726C111.135 3.66327 105.583 3.66327 102.784 7.35726V7.35726C99.9841 11.0513 94.4315 11.0513 91.6322 7.35726V7.35726C88.8328 3.66326 83.2802 3.66326 80.4808 7.35726V7.35726" stroke="#FFC700" stroke-width="4"/>
</svg>
